<svg xmlns="http://www.w3.org/2000/svg" data-name="Layer 1 copy 2" viewBox="0 0 64 80" x="0px" y="0px"><title>Bulb-light-lightbulb-tips-graphic-design</title><path d="M22,41.448V53a5.007,5.007,0,0,0,3.062,4.608A4.989,4.989,0,0,0,30,62h4a4.989,4.989,0,0,0,4.938-4.392A5.007,5.007,0,0,0,42,53V41.448a21,21,0,1,0-20,0ZM34,60H30a3.006,3.006,0,0,1-2.829-2h9.658A3.006,3.006,0,0,1,34,60Zm6-7a3,3,0,0,1-3,3H27a3,3,0,0,1-3-3V46H40ZM31,15.184a3,3,0,1,0,2,0V10.915l4.894,6.292L35.256,26H28.744l-2.638-8.793L31,10.915ZM32,17a1,1,0,1,1-1,1A1,1,0,0,1,32,17Zm4,11h2v2H26V28H36Zm-1,4V44H29V32ZM32,4a18.989,18.989,0,0,1,8.549,35.95,1,1,0,0,0-.549.893V44H37V32h2a1,1,0,0,0,1-1V27a1,1,0,0,0-1-1H37.344l2.614-8.713a1,1,0,0,0-.168-.9l-7-9a1.037,1.037,0,0,0-1.58,0l-7,9a1,1,0,0,0-.168.9L26.656,26H25a1,1,0,0,0-1,1v4a1,1,0,0,0,1,1h2V44H24V40.843a1,1,0,0,0-.549-.893A18.989,18.989,0,0,1,32,4Z"/><text x="0" y="79" fill="#000000" font-size="5px" font-weight="bold" font-family="'Helvetica Neue', Helvetica, Arial-Unicode, Arial, Sans-serif">Created by Turkkub</text><text x="0" y="84" fill="#000000" font-size="5px" font-weight="bold" font-family="'Helvetica Neue', Helvetica, Arial-Unicode, Arial, Sans-serif">from the Noun Project</text></svg>