<svg xmlns="http://www.w3.org/2000/svg" xmlns:xlink="http://www.w3.org/1999/xlink" version="1.1" x="0px" y="0px" viewBox="0 0 100 125" style="enable-background:new 0 0 100 100;" xml:space="preserve"><path d="M94.5,37.4c-2-7.4-9.6-11.9-17-10C73.1,18.7,65.7,12.2,56.6,9c-8.9-3-18.3-2.7-26.8,1C27.2,7,23.3,5,19,5  C11.3,5,5,11.3,5,19c0,4.1,1.8,7.8,4.7,10.4c-4.3,8.9-4.9,18.8-1.6,28.1c3.3,9.4,10.1,16.9,19.1,21.3c-1,7,3.3,13.8,10.2,15.7  c1.2,0.3,2.4,0.5,3.7,0.5c2.4,0,4.8-0.6,6.9-1.8c3.2-1.8,5.6-4.9,6.5-8.5c0.3-1.1,0.4-2.2,0.5-3.3C67.8,77.8,77.8,67.8,81.3,55  c1.1,0,2.2-0.2,3.3-0.5c3.6-0.9,6.7-3.3,8.5-6.5C95,44.8,95.5,41,94.5,37.4z M9,19c0-5.5,4.5-10,10-10c3.3,0,6.2,1.6,8.1,4.1  l0.6,1.1c0.8,1.4,1.3,3.1,1.3,4.9c0,5.5-4.5,10-10,10S9,24.5,9,19z M50.7,83.6c-0.7,2.5-2.4,4.7-4.6,6c-2.3,1.3-5,1.7-7.6,1  c-5.3-1.4-8.5-7-7.1-12.3c0.7-2.5,2.4-4.7,4.6-6c2.3-1.3,5-1.7,7.6-1C48.9,72.8,52.1,78.3,50.7,83.6z M54.5,77.3  c-1.3-4.6-4.9-8.5-9.9-9.8c-3.6-1-7.4-0.5-10.6,1.3c-2.5,1.4-4.4,3.6-5.6,6.1C20.5,71,14.7,64.4,11.8,56.2C9,48.1,9.4,39.4,13,31.6  c1.8,0.9,3.8,1.4,6,1.4c7.7,0,14-6.3,14-14c0-2-0.4-3.8-1.1-5.5c7.4-3.1,15.6-3.3,23.3-0.7c8.1,2.8,14.6,8.5,18.6,16.2  c-2,1.2-3.7,2.9-4.9,5c-1.8,3.2-2.3,7.1-1.4,10.6c1.3,5,5.2,8.6,9.8,9.9C74.1,65.5,65.5,74.1,54.5,77.3z M89.7,46  c-1.3,2.3-3.5,4-6,4.6c-5.3,1.4-10.8-1.8-12.3-7.1c-0.7-2.5-0.3-5.3,1-7.6c1.3-2.3,3.5-4,6-4.6c0.8-0.2,1.7-0.3,2.5-0.3  c4.4,0,8.5,3,9.7,7.5C91.3,41,91,43.8,89.7,46z"/><text x="0" y="115" fill="#000000" font-size="5px" font-weight="bold" font-family="'Helvetica Neue', Helvetica, Arial-Unicode, Arial, Sans-serif">Created by Khuzema</text><text x="0" y="120" fill="#000000" font-size="5px" font-weight="bold" font-family="'Helvetica Neue', Helvetica, Arial-Unicode, Arial, Sans-serif">from the Noun Project</text></svg>