<?xml version="1.0" encoding="utf-8"?>
<!-- Generator: Adobe Illustrator 23.0.3, SVG Export Plug-In . SVG Version: 6.00 Build 0)  -->
<svg version="1.1" id="Capa_1" xmlns="http://www.w3.org/2000/svg" xmlns:xlink="http://www.w3.org/1999/xlink" x="0px" y="0px"
	 viewBox="0 0 500 500" style="enable-background:new 0 0 500 500;" xml:space="preserve">
<style type="text/css">
	.st0{fill:#FFFFFF;}
</style>
<g>
	<g>
		<g>
			<path class="st0" d="M209.4,236.2c9.5-4.7,16.7-10.1,21.6-15.8c8.8-10.4,13.1-24.1,13.1-41.1c0-16.5-4.3-30.8-13-42.6
				c-14.4-19.3-38.8-29.3-73.4-29.8H21V386h127.6c14.4,0,27.6-1.3,40-3.8c12.3-2.5,23-7.2,31.9-14c8.1-5.9,14.7-13.2,20-21.9
				c8.4-13.2,12.6-28,12.6-44.5c0-16-3.7-29.7-11-40.9C234.7,249.6,223.9,241.5,209.4,236.2z M77.4,155.3H139
				c13.5,0,24.7,1.4,33.5,4.4c10.1,4.2,15.2,12.8,15.2,25.9c0,11.7-3.8,19.9-11.5,24.5c-7.7,4.7-17.7,6.9-30,6.9H77.4V155.3z
				 M174.8,332.6c-6.8,3.3-16.4,4.9-28.7,4.9H77.4v-74.4h69.7c12.2,0.1,21.6,1.7,28.4,4.7c12,5.5,18,15.4,18,30
				C193.4,315,187.3,326.5,174.8,332.6z"/>
			<rect x="313.7" y="119.9" class="st0" width="121.3" height="34.7"/>
			<path class="st0" d="M477.1,257c-2.5-16.2-8.1-30.4-16.7-42.7c-9.5-14-21.5-24.1-36.1-30.5s-31-9.7-49.2-9.7
				c-30.7,0-55.6,9.6-74.8,28.6c-19.2,19.1-28.8,46.5-28.8,82.3c0,38.2,10.6,65.8,31.9,82.7c21.3,16.9,45.8,25.4,73.7,25.4
				c33.7,0,60-10,78.7-30.1c12-12.6,18.8-25.1,20.3-37.3h-55.9c-3.2,6.1-7,10.7-11.3,14.2c-7.8,6.3-17.9,9.5-30.3,9.5
				c-11.8,0-21.8-2.6-30.2-7.8c-13.8-8.3-21-22.8-21.9-43.6H479C479.2,280.2,478.5,266.4,477.1,257z M327.8,262.4
				c2-13.4,6.9-24.1,14.6-31.9c7.7-7.9,18.7-11.8,32.7-11.8c12.9,0,23.7,3.7,32.5,11.1c8.7,7.5,13.6,18.3,14.6,32.7h-94.4V262.4z"/>
		</g>
	</g>
</g>
</svg>
