<?xml version="1.0" encoding="utf-8"?>
<!-- Generator: Adobe Illustrator 23.0.3, SVG Export Plug-In . SVG Version: 6.00 Build 0)  -->
<svg version="1.1" id="Capa_1" xmlns="http://www.w3.org/2000/svg" xmlns:xlink="http://www.w3.org/1999/xlink" x="0px" y="0px"
	 viewBox="0 0 64 80" style="enable-background:new 0 0 64 80;" xml:space="preserve">
<title>Bulb-light-lightbulb-tips-graphic-design</title>
<path d="M22,41.4V53c0,2,1.2,3.8,3.1,4.6c0.3,2.5,2.4,4.4,4.9,4.4h4c2.5,0,4.6-1.9,4.9-4.4C40.8,56.8,42,55,42,53V41.4
	c10.2-5.5,14-18.3,8.5-28.5S32.2-1,22,4.5S8,22.8,13.5,33C15.5,36.6,18.4,39.5,22,41.4z M34,60h-4c-1.3,0-2.4-0.8-2.8-2h9.7
	C36.4,59.2,35.3,60,34,60z M40,53c0,1.7-1.3,3-3,3H27c-1.7,0-3-1.3-3-3v-7h16V53z M31,15.2c-1.6,0.6-2.4,2.3-1.8,3.8
	c0.6,1.6,2.3,2.4,3.8,1.8c1.6-0.6,2.4-2.3,1.8-3.8c-0.3-0.9-1-1.5-1.8-1.8v-4.3l4.9,6.3L35.3,26h-6.5l-2.6-8.8l4.9-6.3V15.2z M32,17
	c0.6,0,1,0.4,1,1s-0.4,1-1,1s-1-0.4-1-1S31.4,17,32,17z M36,28h2v2H26v-2H36z M35,32v12h-6V32H35z M32,4c10.5,0,19,8.5,19,19
	c0,7.2-4,13.7-10.5,17c-0.3,0.2-0.5,0.5-0.5,0.9V44h-3V32h2c0.6,0,1-0.4,1-1v-4c0-0.6-0.4-1-1-1h-1.7l2.6-8.7c0.1-0.3,0-0.6-0.2-0.9
	l-7-9c-0.4-0.4-1-0.5-1.5-0.1c0,0-0.1,0.1-0.1,0.1l-7,9C24,16.6,23.9,17,24,17.3l2.6,8.7H25c-0.6,0-1,0.4-1,1v4c0,0.6,0.4,1,1,1h2
	v12h-3v-3.2c0-0.4-0.2-0.7-0.5-0.9c-9.4-4.7-13.1-16.1-8.4-25.5C18.3,8,24.8,4,32,4z"/>
</svg>
