<?xml version="1.0" encoding="utf-8"?>
<!-- Generator: Adobe Illustrator 23.0.3, SVG Export Plug-In . SVG Version: 6.00 Build 0)  -->
<svg version="1.1" id="Capa_1" xmlns="http://www.w3.org/2000/svg" xmlns:xlink="http://www.w3.org/1999/xlink" x="0px" y="0px"
	 viewBox="0 0 500 500" style="enable-background:new 0 0 500 500;" xml:space="preserve">
<style type="text/css">
	.st0{display:none;}
	.st1{display:inline;}
</style>
<g class="st0">
	<path class="st1" d="M1090.6,173.3c-16-27.3-37.6-49-64.9-64.9c-27.3-16-57.2-23.9-89.6-23.9c-32.4,0-62.2,8-89.6,23.9
		c-27.3,16-49,37.6-64.9,64.9c-16,27.3-23.9,57.2-23.9,89.6c0,38.9,11.3,73.8,34,104.9c22.7,31.1,52,52.5,87.9,64.5
		c4.2,0.8,7.3,0.2,9.3-1.6c2-1.9,3-4.2,3-7c0-0.5,0-4.6-0.1-12.5c-0.1-7.9-0.1-14.8-0.1-20.7l-5.3,0.9c-3.4,0.6-7.7,0.9-12.9,0.8
		c-5.2-0.1-10.6-0.6-16.1-1.6c-5.6-1-10.8-3.3-15.6-7c-4.8-3.6-8.2-8.4-10.2-14.3l-2.3-5.3c-1.5-3.6-4-7.5-7.3-11.8
		c-3.3-4.3-6.7-7.3-10.1-8.8l-1.6-1.2c-1.1-0.8-2.1-1.7-3-2.8c-0.9-1.1-1.6-2.2-2.1-3.3c-0.5-1.1-0.1-2,1.2-2.7s3.5-1,6.7-1l4.6,0.7
		c3.1,0.6,6.9,2.5,11.5,5.6c4.6,3.1,8.3,7.1,11.3,12.1c3.6,6.4,7.9,11.2,12.9,14.5c5,3.3,10.1,5,15.2,5s9.5-0.4,13.2-1.2
		c3.7-0.8,7.2-1.9,10.5-3.5c1.4-10.4,5.2-18.4,11.4-23.9c-8.8-0.9-16.8-2.3-23.8-4.2c-7-1.9-14.3-4.9-21.8-9.1
		c-7.5-4.2-13.7-9.4-18.7-15.6c-5-6.2-9-14.3-12.2-24.4c-3.2-10.1-4.8-21.7-4.8-34.8c0-18.7,6.1-34.7,18.4-47.9
		c-5.7-14.1-5.2-29.9,1.6-47.4c4.5-1.4,11.2-0.3,20,3.1c8.8,3.5,15.3,6.5,19.4,8.9c4.1,2.5,7.4,4.6,9.9,6.3c14.4-4,29.3-6,44.6-6
		s30.2,2,44.6,6l8.8-5.6c6-3.7,13.2-7.1,21.4-10.2c8.2-3.1,14.5-3.9,18.8-2.6c7,17.5,7.6,33.3,1.9,47.4
		c12.2,13.2,18.4,29.1,18.4,47.9c0,13.2-1.6,24.8-4.8,35c-3.2,10.1-7.3,18.3-12.3,24.4c-5,6.1-11.3,11.3-18.8,15.4
		c-7.5,4.2-14.8,7.2-21.8,9.1c-7,1.9-15,3.3-23.8,4.2c8.1,7,12.1,18,12.1,33v49c0,2.8,1,5.1,2.9,7c1.9,1.9,5,2.4,9.2,1.6
		c35.9-11.9,65.2-33.4,87.9-64.5c22.7-31.1,34-66,34-104.9C1114.5,230.5,1106.6,200.6,1090.6,173.3z"/>
</g>
<g class="st0">
	<g class="st1">
		<g>
			<path d="M209.4,236.2c9.5-4.7,16.7-10.1,21.6-15.8c8.8-10.4,13.1-24.1,13.1-41.1c0-16.5-4.3-30.8-13-42.6
				c-14.4-19.3-38.8-29.3-73.4-29.8H21V386h127.6c14.4,0,27.6-1.3,40-3.8c12.3-2.5,23-7.2,31.9-14c8.1-5.9,14.7-13.2,20-21.9
				c8.4-13.2,12.6-28,12.6-44.5c0-16-3.7-29.7-11-40.9C234.7,249.6,223.9,241.5,209.4,236.2z M77.4,155.3h61.6
				c13.5,0,24.7,1.4,33.5,4.4c10.1,4.2,15.2,12.8,15.2,25.9c0,11.7-3.8,19.9-11.5,24.5c-7.7,4.7-17.7,6.9-30,6.9H77.4V155.3z
				 M174.8,332.6c-6.8,3.3-16.4,4.9-28.7,4.9H77.4v-74.4h69.7c12.2,0.1,21.6,1.7,28.4,4.7c12,5.5,18,15.4,18,30
				C193.4,315,187.3,326.5,174.8,332.6z"/>
			<rect x="313.7" y="119.9" width="121.3" height="34.7"/>
			<path d="M477.1,257c-2.5-16.2-8.1-30.4-16.7-42.7c-9.5-14-21.5-24.1-36.1-30.5c-14.6-6.4-31-9.7-49.2-9.7
				c-30.7,0-55.6,9.6-74.8,28.6c-19.2,19.1-28.8,46.5-28.8,82.3c0,38.2,10.6,65.8,31.9,82.7c21.3,16.9,45.8,25.4,73.7,25.4
				c33.7,0,60-10,78.7-30.1c12-12.6,18.8-25.1,20.3-37.3h-55.9c-3.2,6.1-7,10.7-11.3,14.2c-7.8,6.3-17.9,9.5-30.3,9.5
				c-11.8,0-21.8-2.6-30.2-7.8c-13.8-8.3-21-22.8-21.9-43.6H479C479.2,280.2,478.5,266.4,477.1,257z M327.8,262.4
				c2-13.4,6.9-24.1,14.6-31.9c7.7-7.9,18.7-11.8,32.7-11.8c12.9,0,23.7,3.7,32.5,11.1c8.7,7.5,13.6,18.3,14.6,32.7H327.8z"/>
		</g>
	</g>
</g>
<g>
	<path d="M412.9,412.9L412.9,412.9L412.9,412.9l0.1-119.5c0-58.5-12.6-103.5-80.9-103.5c-32.9,0-54.9,18-63.9,35.1h-1v-29.7h-64.8
		v217.6h67.5V305.2c0-28.4,5.4-55.8,40.5-55.8c34.6,0,35.1,32.4,35.1,57.6v105.9L412.9,412.9z"/>
	<path d="M92.4,195.4H160v217.6H92.4V195.4z"/>
	<path d="M126.2,87.1c-21.6,0-39.1,17.5-39.1,39.1s17.5,39.5,39.1,39.5s39.1-17.9,39.1-39.5C165.3,104.6,147.8,87.1,126.2,87.1z"/>
</g>
</svg>
