<svg xmlns="http://www.w3.org/2000/svg" viewBox="0 0 500 500">
  <path class="st0" d="M209.4 236.2c9.5-4.7 16.7-10.1 21.6-15.8 8.8-10.4 13.1-24.1 13.1-41.1 0-16.5-4.3-30.8-13-42.6-14.4-19.3-38.8-29.3-73.4-29.8H21V386h127.6c14.4 0 27.6-1.3 40-3.8 12.3-2.5 23-7.2 31.9-14 8.1-5.9 14.7-13.2 20-21.9 8.4-13.2 12.6-28 12.6-44.5 0-16-3.7-29.7-11-40.9-7.4-11.3-18.2-19.4-32.7-24.7zm-132-80.9H139c13.5 0 24.7 1.4 33.5 4.4 10.1 4.2 15.2 12.8 15.2 25.9 0 11.7-3.8 19.9-11.5 24.5-7.7 4.7-17.7 6.9-30 6.9H77.4v-61.7zm97.4 177.3c-6.8 3.3-16.4 4.9-28.7 4.9H77.4v-74.4h69.7c12.2.1 21.6 1.7 28.4 4.7 12 5.5 18 15.4 18 30-.1 17.2-6.2 28.7-18.7 34.8zm138.9-212.7H435v34.7H313.7zM477.1 257c-2.5-16.2-8.1-30.4-16.7-42.7-9.5-14-21.5-24.1-36.1-30.5s-31-9.7-49.2-9.7c-30.7 0-55.6 9.6-74.8 28.6-19.2 19.1-28.8 46.5-28.8 82.3 0 38.2 10.6 65.8 31.9 82.7 21.3 16.9 45.8 25.4 73.7 25.4 33.7 0 60-10 78.7-30.1 12-12.6 18.8-25.1 20.3-37.3h-55.9c-3.2 6.1-7 10.7-11.3 14.2-7.8 6.3-17.9 9.5-30.3 9.5-11.8 0-21.8-2.6-30.2-7.8-13.8-8.3-21-22.8-21.9-43.6H479c.2-17.8-.5-31.6-1.9-41zm-149.3 5.4c2-13.4 6.9-24.1 14.6-31.9 7.7-7.9 18.7-11.8 32.7-11.8 12.9 0 23.7 3.7 32.5 11.1 8.7 7.5 13.6 18.3 14.6 32.7h-94.4v-.1z"/>
</svg>
