<?xml version="1.0" encoding="utf-8"?>
<!-- Generator: Adobe Illustrator 23.0.3, SVG Export Plug-In . SVG Version: 6.00 Build 0)  -->
<svg version="1.1" id="Layer_1" xmlns="http://www.w3.org/2000/svg" xmlns:xlink="http://www.w3.org/1999/xlink" x="0px" y="0px"
	 viewBox="0 0 450 450" style="enable-background:new 0 0 450 450;" xml:space="preserve">
<style type="text/css">
	.st0{fill:#FFFFFF;}
</style>
<g id="XMLID_801_">
	<path id="XMLID_802_" class="st0" d="M142.2,169.7H79.9c-2.8,0-5,2.2-5,5v199.9c0,2.8,2.2,5,5,5h62.2c2.8,0,5-2.2,5-5V174.7
		C147.2,172,144.9,169.7,142.2,169.7z"/>
	<path id="XMLID_803_" class="st0" d="M111.1,70.3c-22.6,0-41.1,18.4-41.1,41c0,22.6,18.4,41,41.1,41c22.6,0,41-18.4,41-41
		C152.1,88.7,133.7,70.3,111.1,70.3z"/>
	<path id="XMLID_804_" class="st0" d="M300.5,164.8c-25,0-43.5,10.7-54.7,23v-13c0-2.8-2.2-5-5-5h-59.6c-2.8,0-5,2.2-5,5v199.9
		c0,2.8,2.2,5,5,5h62.1c2.8,0,5-2.2,5-5v-98.9c0-33.3,9.1-46.3,32.3-46.3c25.3,0,27.3,20.8,27.3,48v97.2c0,2.8,2.2,5,5,5H375
		c2.8,0,5-2.2,5-5V265C380,215.4,370.5,164.8,300.5,164.8z"/>
</g>
</svg>
